inDegrees=no
num_controls=7
num_derivatives=13
num_iterations=125
num_multipliers=7
num_parameters=0
num_slacks=7
num_states=26
objective=0.476968
objective_accelerations=0.044697
objective_balance=0.003626
objective_effort=0.040619
objective_height=0.382370
objective_ligament=0.005656
solver_duration=1762.859559
status=Solve_Succeeded
success=true
DataType=double
version=3
OpenSimVersion=4.5
endheader
time	/jointset/ground_pelvis/pelvis_tilt/value	/jointset/ground_pelvis/pelvis_tx/value	/jointset/ground_pelvis/pelvis_ty/value	/jointset/hip_l/hip_flexion_l/value	/jointset/hip_l/hip_adduction_l/value	/jointset/hip_l/hip_rotation_l/value	/jointset/back/lumbar_extension/value	/jointset/patellofemoral_l/patellar_flexion_l/value	/jointset/knee_l/knee_flexion_l/value	/jointset/knee_l/knee_adduction_l/value	/jointset/knee_l/knee_rotation_l/value	/jointset/ankle_l/ankle_angle_l/value	/jointset/subtalar_l/subtalar_angle_l/value	/jointset/ground_pelvis/pelvis_tilt/speed	/jointset/ground_pelvis/pelvis_tx/speed	/jointset/ground_pelvis/pelvis_ty/speed	/jointset/hip_l/hip_flexion_l/speed	/jointset/hip_l/hip_adduction_l/speed	/jointset/hip_l/hip_rotation_l/speed	/jointset/back/lumbar_extension/speed	/jointset/patellofemoral_l/patellar_flexion_l/speed	/jointset/knee_l/knee_flexion_l/speed	/jointset/knee_l/knee_adduction_l/speed	/jointset/knee_l/knee_rotation_l/speed	/jointset/ankle_l/ankle_angle_l/speed	/jointset/subtalar_l/subtalar_angle_l/speed	/forceset/tau_hip_flexion_l	/forceset/tau_hip_adduction_l	/forceset/tau_hip_rotation_l	/forceset/tau_knee_flexion_l	/forceset/tau_ankle_angle_l	/forceset/tau_subtalar_angle_l	/forceset/tau_lumbar_extension	lambda_cid13_p0	lambda_cid13_p1	lambda_cid13_p2	lambda_cid13_p3	lambda_cid13_p4	lambda_cid13_p5	lambda_cid14_p0	/jointset/ground_pelvis/pelvis_tilt/accel	/jointset/ground_pelvis/pelvis_tx/accel	/jointset/ground_pelvis/pelvis_ty/accel	/jointset/hip_l/hip_flexion_l/accel	/jointset/hip_l/hip_adduction_l/accel	/jointset/hip_l/hip_rotation_l/accel	/jointset/back/lumbar_extension/accel	/jointset/patellofemoral_l/patellar_flexion_l/accel	/jointset/knee_l/knee_flexion_l/accel	/jointset/knee_l/knee_adduction_l/accel	/jointset/knee_l/knee_rotation_l/accel	/jointset/ankle_l/ankle_angle_l/accel	/jointset/subtalar_l/subtalar_angle_l/accel	gamma_cid13_p0	gamma_cid13_p1	gamma_cid13_p2	gamma_cid13_p3	gamma_cid13_p4	gamma_cid13_p5	gamma_cid14_p0
1.5	0.01230303608980872	-0.01086376517286891	0.8519652678958062	0.6721364332064391	-0.3221635591564423	-0.1320692037656249	-0.7952684076505193	0.7839831079418297	0.7839831079419374	-0.1007163830043241	-0.1745107904266965	0.1579026670064436	0.02621745473346109	0.3096851035454162	0.23061743595026	0.4258223869995884	-1.980218880211103	0.08411597402003278	-0.6435563366196652	0.8402495641107564	-2.011732676353963	-2.011732676353965	-0.1493507856835387	-0.0001294789731637779	-0.4643515284957632	-0.06743941315560166	-0.192554773829996	0.02665155988884371	-0.005730282352069723	-0.231812085372723	0.06877276691632983	0.03647726317551669	0.2760777725597386	-20.13494282610663	-14.415779028544	4.241737652105178	-8.024489775081712	-668.8851817862774	-71.70287046903185	-15.05683156182489	-0.02973994992021821	0.6518273895485321	-0.6228193693254218	-0.6766058981919786	0.4809677548162373	-0.393184440284109	1.958148959986522	-1.023693825145481	-1.023693825145471	-0.2330978702613702	0.0208006478336655	-0.3052399116037654	0.4601522439568173	3.664641569469772e-07	8.562621993410098e-07	-1.717324590385546e-06	-6.454921245804226e-08	4.454549452800777e-07	6.057785975257498e-07	3.136180071138154e-07
1.51	0.01539852526099113	-0.008525133184524438	0.8561915049702432	0.6523018013659498	-0.3212997167358917	-0.1385231695053898	-0.786769387134039	0.7638170742746953	0.7638170742746908	-0.1022245559201142	-0.1745122098319223	0.1532444302628637	0.02556454841125558	0.3093909183505658	0.2370917470443532	0.4193352490349962	-1.986473699333176	0.08861719252802704	-0.6471616622111517	0.8594520820436381	-2.021164811406305	-2.021164811406314	-0.1523400036728413	-0.0001881205752181322	-0.4671911455462622	-0.06315402169763183	-0.1857350699082439	0.02570228850935058	-0.005490870430653307	-0.2276067358149106	0.06922767882988064	0.03583633420519388	0.2693480143641838	-19.75023155339445	-14.26542352924939	4.287031402321795	-8.02024081527138	-664.3587360773231	-71.64689934601724	-15.78322673242473	-0.0325014460974366	0.6426422232309097	-0.6750335978878974	-0.5648151041912307	0.429508956827154	-0.3326343818180855	1.885934638732262	-0.8566474493734644	-0.856647449374622	-0.3401581395867712	-0.02455381864848455	-0.257583085415998	0.4109302362315304	3.57652242117596e-07	9.52992088267339e-07	-1.61863274454695e-06	-5.014493737131143e-08	4.624469021131147e-07	6.49118672597139e-07	3.077793393670807e-07
1.52	0.01849042385186229	-0.006122276234460539	0.8603501961474622	0.6324116422972448	-0.3203919001186482	-0.1450108740537314	-0.7780814151524716	0.7435659844362028	0.7435659844361151	-0.1037642858910202	-0.1745152871040974	0.1485609452520482	0.02495413553153265	0.3089669874825166	0.2434624282941447	0.412313207555948	-1.991324325854287	0.09291081335747672	-0.6503040983321312	0.8780398571282427	-2.028743910622446	-2.028743910622464	-0.1556621967150324	-0.0004610523542100114	-0.4694011819424841	-0.05894072465908574	-0.1789153659865256	0.02475301712981398	-0.005251458508903109	-0.2234013862571282	0.06968259074341	0.03519540523480015	0.2626182561686152	-19.36433475635409	-14.1166697734327	4.334174391328483	-8.062536421229071	-659.8481555083067	-71.64828239244224	-16.49847537631301	-0.05568908455995176	0.6311014206881626	-0.7298000722166281	-0.395767377999386	0.4394482191072976	-0.3006065461827027	1.835200390331173	-0.6530866579054614	-0.6530866579054573	-0.2996928808390542	-0.02205738755384914	-0.1793237807483709	0.445733360072061	3.003824765128943e-07	1.28555962487293e-06	-1.219265309195733e-06	2.514960882838937e-08	4.326931791632803e-07	6.796022168279231e-07	2.875336115000954e-07
1.53	0.02157699139948013	-0.003656453032941571	0.8644361334753149	0.6124805214693302	-0.3194411999579822	-0.1515297386659007	-0.7692110752013557	0.7232478786198636	0.7232478786197813	-0.1053360106487896	-0.1745224304901357	0.1438582636867377	0.02438659929236973	0.3082846374491945	0.2496621064423374	0.4047978368695461	-1.994617446720461	0.09726558541970295	-0.6533300520101114	0.8958786944900891	-2.034624118054017	-2.034624118053998	-0.1586539387338899	-0.0008572639741044468	-0.4710625714776455	-0.05450895667149466	-0.1713297097765505	0.02352011932432957	-0.005072538756890093	-0.2201359402293676	0.07068549081969687	0.03441485390811814	0.2552132672601518	-18.84054697261483	-13.91993501478935	4.360546241511785	-7.902645666423574	-655.6429867255184	-71.70951571706264	-17.20297802869477	-0.08379838307110118	0.6084331936354823	-0.7738065878467065	-0.2537334476528987	0.4387014351472627	-0.282553570435968	1.735809618418196	-0.5175641865828772	-0.5175641865772344	-0.2942366460382572	-0.03187867838319124	-0.1485902428738461	0.4502008968312299	1.916262444594149e-07	1.868704662137734e-06	-5.004300599873596e-07	1.651400680856201e-07	3.532721714441455e-07	6.964256970405643e-07	2.519803822553439e-07
1.54	0.02465487736269425	-0.00112982661359035	0.868444636892105	0.5925249396314086	-0.3184459101296182	-0.158074655573218	-0.7601668300347598	0.702878555449058	0.7028785554489652	-0.1069367171834923	-0.1745302311182178	0.139141159485481	0.02386504120882854	0.3072306706017536	0.2556230718605952	0.3968264253433735	-1.996216527855692	0.1018287468966077	-0.6555145573613018	0.9128209002242	-2.038987381517583	-2.038987381517526	-0.1614585520979117	-0.0005925007610389993	-0.4722857091317611	-0.0497450935347602	-0.1637440535665757	0.02228722151884192	-0.004893619005026753	-0.2168704942016006	0.07168839089598382	0.033634302581436	0.2478082783516885	-18.31440637810667	-13.72510933697295	4.388933223391009	-7.781914251728142	-651.4324471572043	-71.79769649507747	-17.89759525993367	-0.1300124473836955	0.5833588747011715	-0.8210082401708019	-0.05695943181095468	0.4811261020430023	-0.1323168808248077	1.655874064784137	-0.3496978643042848	-0.3496978643042902	-0.2622671498718975	0.1101375790380481	-0.0916734045392535	0.5121523899006978	1.157334035791599e-07	2.164515918160318e-06	-6.21823885555611e-08	2.483508866158908e-07	2.876289579910165e-07	6.826024327781734e-07	2.238296621867335e-07
1.55	0.02772066290493133	0.001455270006308125	0.8723711488602028	0.5725617812283885	-0.3174042938454166	-0.1646374250008402	-0.750957528048695	0.6824739843763957	0.6824739843763019	-0.1085646622043577	-0.1745327671897041	0.1344144951546115	0.02339255810211194	0.3059050272703985	0.2613612718493914	0.3884039084691639	-1.996163556609581	0.1064792423443749	-0.656907721867268	0.9288862820059441	-2.041610183591005	-2.041610183591005	-0.1641530919015959	0.0001261295389642928	-0.4729366440700324	-0.04473979543412872	-0.1566381050466321	0.02117437729440016	-0.004768227907220583	-0.2132396867834614	0.07238280521398657	0.03273543049452053	0.2408276131437849	-17.89834875365295	-13.45791186413223	4.403827956523561	-7.694954528004669	-647.4149402407934	-71.69212672491483	-18.57886264994654	-0.1370658891636786	0.563858725531296	-0.86364033992995	0.07414818529305954	0.4544449252722836	-0.1229001759339275	1.558887987490231	-0.1711126263682162	-0.1711126263768936	-0.2760882016702714	0.05886211930343307	-0.03516241740624473	0.4961307586995876	7.770490470283508e-08	2.129268687099493e-06	5.27795954380276e-08	2.661416843085807e-07	2.378601596704587e-07	6.334687890119429e-07	2.042079200819374e-07
1.56	0.03077254689122553	0.00409671025900727	0.876211282273782	0.5526066970943259	-0.3163166858749085	-0.1712101428616102	-0.7415921686942893	0.6620526770334728	0.6620526770334233	-0.1102201607844444	-0.1745268896855516	0.1296846496985729	0.02297041042411282	0.3044503594129475	0.2668917984207294	0.3795507144396044	-1.994601674064632	0.1110270841572816	-0.657504243991293	0.9440323738925062	-2.042334635564714	-2.042334635564772	-0.1669692639474219	0.001090214391851856	-0.4729219341657118	-0.03967800779128752	-0.1495321565266791	0.02006153306998229	-0.004642836809122519	-0.2096088793653343	0.07307721953199391	0.03183655840762822	0.2338469479358804	-17.48486428060651	-13.19088919769409	4.419465281597518	-7.626062560152282	-643.4580435601612	-71.61177731361379	-19.23425407724567	-0.1558173526028691	0.5418241912095261	-0.9071436712408181	0.2448228279563954	0.4605953750709217	0.0270115955635035	1.472016085747727	0.02997215563814301	0.02997215563814225	-0.2865935983002484	0.1592284896150182	0.04145556397911215	0.5234502983426728	4.609314110788619e-08	2.124767545873812e-06	1.580927743734072e-07	2.828796252751683e-07	2.007131045537337e-07	5.997104826104121e-07	1.888503891997197e-07
